Coordinates
version=1
nRows=23
nColumns=28
inDegrees=yes

Units are S.I. units (second, meters, Newtons, ...)
If the header above contains a line with 'inDegrees', this indicates whether rotational values are in degrees (yes) or radians (no).

endheader
time	pelvis_tilt	pelvis_list	pelvis_rotation	pelvis_tx	pelvis_ty	pelvis_tz	hip_flexion_r	hip_adduction_r	hip_rotation_r	knee_angle_r	knee_rotation_r	knee_adduction_r	ankle_angle_r	subtalar_angle_r	mtp_angle_r	hip_flexion_l	hip_adduction_l	hip_rotation_l	knee_angle_l	knee_rotation_l	knee_adduction_l	ankle_angle_l	subtalar_angle_l	mtp_angle_l	lumbar_extension	lumbar_bending	lumbar_rotation
      0.29000000	      6.77629096	      7.92012058	   -101.07640657	     -0.20756719	      0.93392479	     -0.45836659	     16.97345265	    -11.20192222	     13.51936219	    -55.07029745	      8.04762946	      9.08634341	     -1.38469412	      4.57172706	      4.07565624	     37.42135871	      6.59517082	      5.63685241	    -30.74309765	      1.22032211	     -2.03595581	     10.77029595	    -11.63110126	     -8.85907418	      0.00000000	      0.00000000	      0.00000000
      0.30000000	      7.52063573	      7.57368308	   -100.78001534	     -0.20787340	      0.93525054	     -0.44736169	     18.26059885	    -11.86003058	     13.14019678	    -57.47734581	      9.36401172	      8.65326962	     -2.67803484	      2.00892028	      3.38936776	     36.55568404	      7.48957138	      5.79261497	    -30.82095147	      1.49571797	     -2.49714216	     11.37419110	    -11.64157674	     -8.94215169	      0.00000000	      0.00000000	      0.00000000
      0.31000000	      8.33028387	      7.19990403	   -100.60420370	     -0.20728227	      0.93670828	     -0.43622835	     19.91752739	    -12.95951087	     12.41725747	    -60.22716776	      8.72798454	      8.06727728	     -3.73344256	      2.02457422	      3.31685084	     35.59722556	      8.54943652	      6.07645439	    -30.73643868	      1.65898890	     -2.83389567	     12.00058241	    -11.86333408	     -8.98878850	      0.00000000	      0.00000000	      0.00000000
      0.32000000	      9.02989677	      7.08228568	   -100.19259897	     -0.20664589	      0.93820620	     -0.42467078	     21.02728989	    -13.79367079	     12.47930471	    -61.79225037	      9.03461559	      8.27605282	     -3.13599427	     -0.85153283	      2.48896970	     34.69356716	      9.64243484	      6.92664636	    -30.41877425	      1.81241179	     -3.18884033	     12.10496969	    -12.83335970	     -9.14687526	      0.00000000	      0.00000000	      0.00000000
      0.33000000	      9.58597204	      6.84170527	    -99.93957872	     -0.20623556	      0.93985312	     -0.41347424	     22.35305132	    -14.46600645	     12.22747199	    -63.64705442	      8.26266012	      8.14544362	     -2.60120116	     -2.54822478	      1.97197208	     33.72667502	     10.50276771	      7.41644763	    -30.23926840	      2.22071573	     -3.40438516	     12.55695065	    -12.68877252	     -9.31514194	      0.00000000	      0.00000000	      0.00000000
      0.34000000	      9.89692798	      6.71741125	    -99.66127658	     -0.20613876	      0.94161684	     -0.40245126	     23.43635592	    -14.79215131	     12.68830742	    -64.70199502	      7.66595306	      8.81339074	     -1.73370408	     -5.45199835	      1.60871308	     32.75116538	     11.06913458	      8.02284567	    -29.95179157	      2.71730044	     -3.65715412	     13.04630614	    -12.52121859	     -9.43598157	      0.00000000	      0.00000000	      0.00000000
      0.35000000	     10.45299420	      6.51823178	    -99.30378200	     -0.20567789	      0.94309153	     -0.39130378	     24.73580367	    -15.54516043	     13.00707890	    -65.96317362	      6.23875778	      9.28646154	     -1.00233290	     -6.67068942	      1.65168018	     31.67091939	     12.03133060	      8.57114740	    -29.53715322	      3.27056543	     -3.68098311	     13.58839464	    -12.22296391	     -9.51715409	      0.00000000	      0.00000000	      0.00000000
      0.36000000	     10.60465854	      6.50229718	    -98.91943034	     -0.20596359	      0.94478057	     -0.38022419	     25.79938104	    -15.54254022	     13.19138758	    -66.56254861	      5.60977768	      9.57872109	     -0.41810699	     -9.57475677	      1.86931137	     30.71841954	     12.44581985	      8.87484563	    -29.21025268	      3.57914658	     -3.65219810	     14.30234773	    -11.39312100	     -9.51667972	      0.00000000	      0.00000000	      0.00000000
      0.37000000	     10.89532138	      6.30861968	    -98.47964526	     -0.20602609	      0.94676735	     -0.36883832	     26.74348040	    -15.79901339	     13.00834135	    -67.06699250	      4.98837757	      9.54892059	      0.28682081	    -11.71674071	      1.91315784	     29.46642033	     13.11520867	      9.15342939	    -28.69174704	      3.53622085	     -3.49470451	     14.67900111	    -11.34045280	     -9.52559654	      0.00000000	      0.00000000	      0.00000000
      0.38000000	     11.20269841	      6.15701991	    -97.97986309	     -0.20580216	      0.94847983	     -0.35749942	     27.75589019	    -16.17359453	     13.00775293	    -67.38331189	      4.31202957	      9.69399323	      0.67131039	    -13.47028521	      2.03907594	     28.25107709	     13.83564895	      9.44832614	    -28.13759577	      3.45149314	     -3.27734477	     15.03864241	    -11.30253788	     -9.52639468	      0.00000000	      0.00000000	      0.00000000
      0.39000000	     11.23065413	      6.01003813	    -97.48795628	     -0.20604920	      0.95061640	     -0.34635336	     28.41055766	    -15.94484631	     12.88134255	    -67.04832583	      4.47384532	      9.59826247	      0.52395189	    -16.98691750	      1.84255106	     26.97151094	     14.19007434	      9.79464138	    -27.57649158	      3.10100944	     -3.10145660	     15.28540349	    -11.39854721	     -9.52460642	      0.00000000	      0.00000000	      0.00000000
      0.40000000	     11.33351599	      6.02391008	    -97.05379426	     -0.20601297	      0.95200759	     -0.33565522	     29.75396825	    -15.95712925	     12.14583210	    -67.11108534	      3.68643711	      8.91092963	     -0.09068263	    -18.20796793	      1.79750358	     25.96360453	     14.56580670	     10.19921332	    -27.09786571	      3.07934852	     -3.02160396	     15.63316180	    -11.35024647	     -9.58232882	      0.00000000	      0.00000000	      0.00000000
      0.41000000	     11.27513880	      5.94229208	    -96.85011156	     -0.20664337	      0.95388400	     -0.32526746	     30.29919558	    -15.45464326	     13.38178269	    -66.04984171	      3.73069468	      9.80155944	      0.08644479	    -21.29738433	      1.00857169	     24.82643099	     14.60629978	     10.39180595	    -26.58117117	      2.94144602	     -2.94221959	     16.03136016	    -11.07018955	     -9.64866099	      0.00000000	      0.00000000	      0.00000000
      0.42000000	     11.35679972	      5.89308683	    -96.43235322	     -0.20646633	      0.95529421	     -0.31461950	     31.19051237	    -15.41996250	     13.24645256	    -65.39387047	      3.66057993	      9.57660334	      0.18554552	    -22.46581348	     -0.21335484	     23.73801428	     14.91859873	     10.90590718	    -26.13129462	      3.25594902	     -2.88901757	     16.64691938	    -10.28870683	     -9.67258199	      0.00000000	      0.00000000	      0.00000000
      0.43000000	     11.36422951	      5.73388296	    -96.00170543	     -0.20644171	      0.95697743	     -0.30399049	     31.78243322	    -15.29805422	     13.51485676	    -64.43274820	      2.93934443	      9.68258504	      1.05127617	    -22.41957361	     -0.82448836	     22.43182777	     15.15359917	     11.58505529	    -25.52768836	      3.48492974	     -2.83886067	     16.92288865	     -9.99271141	     -9.62757306	      0.00000000	      0.00000000	      0.00000000
      0.44000000	     11.30015703	      5.55401015	    -95.79030735	     -0.20720984	      0.95853366	     -0.29343850	     32.33783138	    -14.86531317	     14.02280797	    -63.15476739	      2.53780842	      9.79163490	      1.34014800	    -22.99238387	     -1.38762258	     21.18010984	     15.05614485	     11.45228561	    -24.99959160	      3.28102815	     -2.81935367	     17.57684226	     -9.37399362	     -9.54379138	      0.00000000	      0.00000000	      0.00000000
      0.45000000	     11.35249252	      5.37801937	    -95.33467923	     -0.20715774	      0.95984217	     -0.28277194	     32.87450182	    -14.85072577	     14.41622481	    -61.92574504	      1.46311283	      9.98217177	      2.10400568	    -21.56797605	     -1.74059028	     19.81551537	     15.28334069	     11.94355830	    -24.28948360	      3.27769163	     -2.74550883	     17.87537027	     -9.15343344	     -9.41682929	      0.00000000	      0.00000000	      0.00000000
      0.46000000	     11.02741489	      5.59960945	    -95.06572222	     -0.20825045	      0.96098807	     -0.27284640	     33.51828576	    -13.97151162	     15.07126958	    -60.05316944	      1.11065400	     10.12327162	      2.47637127	    -21.59358127	     -1.85451561	     18.98375003	     14.80447582	     12.33515858	    -23.75256551	      3.18304772	     -2.97163036	     18.18585879	     -9.08586791	     -9.38137001	      0.00000000	      0.00000000	      0.00000000
      0.47000000	     11.11291492	      5.20332833	    -94.45273484	     -0.20815578	      0.96192780	     -0.26192030	     33.62704168	    -13.97081590	     15.61579698	    -58.55724032	      0.08812089	     10.28201590	      3.61955972	    -19.59697162	     -2.20229888	     17.51626204	     15.14748780	     11.95559885	    -23.36465632	      2.51547334	     -2.48014446	     18.92483677	     -8.36580079	     -9.17343879	      0.00000000	      0.00000000	      0.00000000
      0.48000000	     11.01108592	      5.21571788	    -94.10164442	     -0.20904706	      0.96264272	     -0.25177793	     34.04450147	    -13.44385688	     16.33041882	    -56.60828800	     -0.59225067	     10.28194362	      4.42277607	    -18.27951509	     -2.43360005	     16.49056698	     15.00425422	     12.28391311	    -22.84763694	      2.28995472	     -2.54026724	     19.36853456	     -8.43284266	     -8.97895423	      0.00000000	      0.00000000	      0.00000000
      0.49000000	     10.89981567	      5.35107052	    -93.94811413	     -0.20979587	      0.96315301	     -0.24196048	     34.54534773	    -12.91515954	     17.08991981	    -54.25917612	     -1.11336835	     10.23025897	      4.85021921	    -17.25510825	     -2.64020795	     15.67282165	     14.80311495	     12.52875462	    -22.36216484	      2.16362968	     -2.63133370	     19.67770315	     -8.32850280	     -8.72946395	      0.00000000	      0.00000000	      0.00000000
      0.50000000	     10.88404326	      5.46594806	    -93.40295886	     -0.21010860	      0.96311740	     -0.23196655	     34.87408655	    -12.74885639	     17.71428968	    -51.86430467	     -1.67585989	     10.31242950	      5.53676019	    -16.32148510	     -2.82181523	     14.88511915	     14.81197806	     12.95161251	    -22.10429986	      2.02637561	     -2.67425910	     20.27391329	     -8.00156971	     -8.66425649	      0.00000000	      0.00000000	      0.00000000
      0.51000000	     11.15496513	      5.41453663	    -93.16456894	     -0.21029141	      0.96313972	     -0.22157651	     35.26978146	    -12.87302650	     18.30436925	    -49.69767284	     -2.78949887	     10.14711216	      6.56259595	    -13.80437147	     -3.15654111	     13.70227040	     15.15929183	     13.80293513	    -21.33042070	      2.38875825	     -2.69147726	     20.47320481	     -8.04546765	     -8.53906180	      0.00000000	      0.00000000	      0.00000000
